HIERARCHY
ROOT Hips
{
	OFFSET 0.000000 0.000000 0.000000
	CHANNELS 6 Xposition Yposition Zposition Zrotation Yrotation Xrotation 
	JOINT LHipJoint
	{
		OFFSET 0.000000 0.000000 0.000000
		CHANNELS 3 Zrotation Yrotation Xrotation
		JOINT LeftUpLeg
		{
			OFFSET 1.363060 -1.794630 0.839290
			CHANNELS 3 Zrotation Yrotation Xrotation
			JOINT LeftLeg
			{
				OFFSET 2.448110 -6.726130 0.000000
				CHANNELS 3 Zrotation Yrotation Xrotation
				JOINT LeftFoot
				{
					OFFSET 2.562200 -7.039590 0.000000
					CHANNELS 3 Zrotation Yrotation Xrotation
					JOINT LeftToeBase
					{
						OFFSET 0.157640 -0.433110 2.322550
						CHANNELS 3 Zrotation Yrotation Xrotation
						End Site
						{
							OFFSET 0.000000 0.000000 0.000000
						}
					}
				}
			}
		}
	}
	JOINT RHipJoint
	{
		OFFSET 0.000000 0.000000 0.000000
		CHANNELS 3 Zrotation Yrotation Xrotation
		JOINT RightUpLeg
		{
			OFFSET -1.305520 -1.794630 0.839290
			CHANNELS 3 Zrotation Yrotation Xrotation
			JOINT RightLeg
			{
				OFFSET -2.542530 -6.985550 0.000000
				CHANNELS 3 Zrotation Yrotation Xrotation
				JOINT RightFoot
				{
					OFFSET -2.568260 -7.056230 0.000000
					CHANNELS 3 Zrotation Yrotation Xrotation
					JOINT RightToeBase
					{
						OFFSET -0.164730 -0.452590 2.363150
						CHANNELS 3 Zrotation Yrotation Xrotation
						End Site
						{
							OFFSET 0.000000 0.000000 0.000000
						}
					}
				}
			}
		}
	}
	JOINT LowerBack
	{
		OFFSET 0.000000 0.000000 0.000000
		CHANNELS 3 Zrotation Yrotation Xrotation
		JOINT Spine
		{
			OFFSET 0.028270 2.035590 -0.193380
			CHANNELS 3 Zrotation Yrotation Xrotation
			JOINT Spine1
			{
				OFFSET 0.056720 2.048850 -0.042750
				CHANNELS 3 Zrotation Yrotation Xrotation
				JOINT Neck
				{
					OFFSET 0.000000 0.000000 0.000000
					CHANNELS 3 Zrotation Yrotation Xrotation
					JOINT Neck1
					{
						OFFSET -0.054170 1.746240 0.172020
						CHANNELS 3 Zrotation Yrotation Xrotation
						JOINT Head
						{
							OFFSET 0.104070 1.761360 -0.123970
							CHANNELS 3 Zrotation Yrotation Xrotation
							End Site
							{
								OFFSET 0.000000 0.000000 0.000000
							}
						}
					}
				}
				JOINT LeftShoulder
				{
					OFFSET 0.000000 0.000000 0.000000
					CHANNELS 3 Zrotation Yrotation Xrotation
					JOINT LeftArm
					{
						OFFSET 3.362410 1.200890 -0.311210
						CHANNELS 3 Zrotation Yrotation Xrotation
						JOINT LeftForeArm
						{
							OFFSET 4.983000 -0.000000 -0.000000
							CHANNELS 3 Zrotation Yrotation Xrotation
							JOINT LeftHand
							{
								OFFSET 3.483560 -0.000000 -0.000000
								CHANNELS 3 Zrotation Yrotation Xrotation
								JOINT LeftFingerBase
								{
									OFFSET 0.000000 0.000000 0.000000
									CHANNELS 3 Zrotation Yrotation Xrotation
									JOINT LeftHandIndex1
									{
										OFFSET 0.715260 -0.000000 -0.000000
										CHANNELS 3 Zrotation Yrotation Xrotation
										End Site
										{
											OFFSET 0.000000 0.000000 0.000000
										}
									}
								}
								JOINT LThumb
								{
									OFFSET 0.000000 0.000000 0.000000
									CHANNELS 3 Zrotation Yrotation Xrotation
									End Site
									{
										OFFSET 0.000000 0.000000 0.000000
									}
								}
							}
						}
					}
				}
				JOINT RightShoulder
				{
					OFFSET 0.000000 0.000000 0.000000
					CHANNELS 3 Zrotation Yrotation Xrotation
					JOINT RightArm
					{
						OFFSET -3.136600 1.374050 -0.404650
						CHANNELS 3 Zrotation Yrotation Xrotation
						JOINT RightForeArm
						{
							OFFSET -5.241900 -0.000000 -0.000000
							CHANNELS 3 Zrotation Yrotation Xrotation
							JOINT RightHand
							{
								OFFSET -3.444170 -0.000000 -0.000000
								CHANNELS 3 Zrotation Yrotation Xrotation
								JOINT RightFingerBase
								{
									OFFSET 0.000000 0.000000 0.000000
									CHANNELS 3 Zrotation Yrotation Xrotation
									JOINT RightHandIndex1
									{
										OFFSET -0.622530 -0.000000 -0.000000
										CHANNELS 3 Zrotation Yrotation Xrotation
										End Site
										{
											OFFSET 0.000000 0.000000 0.000000
										}
									}
								}
								JOINT RThumb
								{
									OFFSET 0.000000 0.000000 0.000000
									CHANNELS 3 Zrotation Yrotation Xrotation
									End Site
									{
										OFFSET 0.000000 0.000000 0.000000
									}
								}
							}
						}
					}
				}
			}
		}
	}
}
MOTION
Frames: 12
Frame Time: 0.008333
3.450844 16.548551 1.244634 -138.781242 -87.319523 162.337919 -11.929592 2.422128 -2.816304 -5.150639 5.156494 -4.692929 -0.787752 1.667550 29.380303 0.113584 -4.102116 9.015770 -1.069700 0.000000 -82.960500 7.349877 -0.052420 1.943892 8.529518 11.274860 -50.212838 2.010043 -1.978046 29.141107 -0.671012 -2.191591 -0.791478 -0.828500 0.000000 -22.597300 7.064613 -2.531253 3.752096 0.685645 -2.702931 -2.130170 -6.964258 -2.801222 0.730776 10.712293 1.536188 3.400796 -4.105064 -0.368336 2.688429 0.000000 0.000000 0.000000 -8.538270 -7.847041 1.429516 -62.988452 -28.693140 15.910558 -2.646826 -44.040769 -0.019395 6.338865 -2.981899 -0.182552 -0.139900 0.264453 0.000000 0.000000 0.000000 0.000000 0.000000 0.000000 0.000000 17.825308 -2.344885 1.216992 51.254452 7.723757 -15.750928 3.674155 13.690835 0.013599 -0.708329 7.282863 -0.052384 0.110648 -0.069939 0.000000 0.000000 0.000000 0.000000 0.000000 0.000000 0.000000 
3.272092 16.547920 1.229608 -129.086351 -87.461803 152.496443 -12.195697 2.329185 -2.888992 -4.380382 5.369863 -5.423951 -0.570673 1.810138 31.631041 0.201858 -4.289215 10.587782 -1.289400 -0.000000 -81.444000 7.159262 -0.146610 1.766277 9.044009 11.416670 -49.889832 1.960586 -2.105333 30.895064 -0.831760 -2.697939 -2.300892 -0.796500 -0.000000 -22.014700 7.483164 -2.618426 4.005460 0.776093 -2.788400 -2.099861 -6.949089 -2.892890 0.685269 11.034245 1.995200 3.616146 -4.080629 -0.367382 2.742045 0.000000 0.000000 0.000000 -8.528546 -8.074849 1.439348 -63.504678 -28.314649 15.207001 -2.674214 -42.280300 -0.020702 6.804018 -3.077734 -0.201225 -0.138593 0.257659 0.000000 0.000000 0.000000 0.000000 0.000000 0.000000 0.000000 17.973851 -2.068155 1.169768 51.389364 8.120697 -16.463496 3.638130 13.145527 0.013176 -1.079544 7.377399 -0.077091 0.109518 -0.069649 0.000000 0.000000 0.000000 0.000000 0.000000 0.000000 0.000000 
3.096374 16.552374 1.212467 -119.229886 -87.551427 142.488758 -12.456074 2.229297 -2.952209 -3.671327 5.543901 -6.263992 -0.367056 1.949767 33.977403 0.314533 -4.227275 12.046012 -1.445500 -0.000000 -78.942100 6.975101 -0.232100 1.576728 9.601071 11.434556 -49.362551 1.944474 -2.184599 32.227654 -0.990620 -3.183396 -3.809417 -0.735900 0.000000 -21.907500 7.817335 -2.697776 4.255911 0.844859 -2.864543 -2.065461 -6.932315 -2.974511 0.654022 11.407184 2.445868 3.853863 -4.049822 -0.366234 2.800689 0.000000 0.000000 0.000000 -8.454514 -8.310319 1.441370 -64.033641 -27.982536 14.548753 -2.700487 -40.349035 -0.021873 7.264819 -3.133725 -0.217803 -0.136947 0.249803 0.000000 0.000000 0.000000 0.000000 0.000000 0.000000 0.000000 18.133174 -1.802656 1.109587 51.617805 8.564877 -17.180020 3.599337 12.599280 0.012694 -1.437626 7.451307 -0.101299 0.108012 -0.068885 0.000000 0.000000 0.000000 0.000000 0.000000 0.000000 0.000000 
2.923269 16.561341 1.192876 -109.410375 -87.597367 132.524596 -12.694905 2.126519 -3.001126 -3.047066 5.658667 -7.213810 -0.181141 2.087058 36.398183 0.448450 -3.841474 13.312074 -1.487600 0.000000 -75.581600 6.809628 -0.304804 1.383087 10.171504 11.333270 -48.670515 1.955255 -2.222699 33.169954 -1.142739 -3.629888 -5.254998 -0.650800 0.000000 -22.139200 8.067931 -2.765520 4.489356 0.893206 -2.928886 -2.028665 -6.913544 -3.043502 0.639119 11.824254 2.869706 4.105570 -4.012893 -0.364912 2.862282 0.000000 0.000000 0.000000 -8.327341 -8.547038 1.437084 -64.563129 -27.703022 13.957991 -2.726888 -38.268706 -0.022789 7.687830 -3.136443 -0.229982 -0.134908 0.241003 0.000000 0.000000 0.000000 0.000000 0.000000 0.000000 0.000000 18.298696 -1.559528 1.037188 51.943768 9.045358 -17.880800 3.558712 12.079604 0.012169 -1.770452 7.500539 -0.123906 0.106156 -0.067691 0.000000 0.000000 0.000000 0.000000 0.000000 0.000000 0.000000 
2.752506 16.574300 1.170910 -99.741054 -87.608153 122.723778 -12.903160 2.022929 -3.033549 -2.523574 5.705500 -8.272045 -0.014103 2.223033 38.868741 0.600285 -3.082756 14.325430 -1.374300 0.000000 -71.568699 6.669749 -0.363830 1.192179 10.728546 11.124514 -47.853991 1.985817 -2.226597 33.764370 -1.282793 -4.022648 -6.580567 -0.549300 0.000000 -22.553900 8.238707 -2.818791 4.695617 0.922851 -2.979709 -1.991119 -6.892254 -3.098055 0.640603 12.274402 3.247704 4.361946 -3.970983 -0.363475 2.924487 0.000000 0.000000 0.000000 -8.159711 -8.783994 1.427977 -65.082288 -27.472394 13.446719 -2.754337 -36.074683 -0.023347 8.036131 -3.072898 -0.235061 -0.132404 0.231451 0.000000 0.000000 0.000000 0.000000 0.000000 0.000000 0.000000 18.466244 -1.351444 0.954634 52.366276 9.555871 -18.532899 3.517366 11.611543 0.011621 -2.069861 7.524112 -0.144012 0.104013 -0.066150 0.000000 0.000000 0.000000 0.000000 0.000000 0.000000 0.000000 
2.583789 16.590831 1.146791 -90.362719 -87.588978 113.232899 -13.075770 1.919726 -3.049450 -2.111995 5.684157 -9.433317 0.134921 2.358458 41.358866 0.767874 -1.932368 15.047662 -1.082700 0.000000 -67.158600 6.559851 -0.409258 1.009735 11.248316 10.826718 -46.953528 2.028864 -2.203287 34.062981 -1.405743 -4.351099 -7.741817 -0.441700 -0.000000 -22.995700 8.335128 -2.855202 4.868725 0.935571 -3.015340 -1.953288 -6.868513 -3.136290 0.660292 12.742499 3.557309 4.609694 -3.926365 -0.361984 2.983786 0.000000 0.000000 0.000000 -7.968595 -9.008079 1.415429 -65.579899 -27.297367 13.031538 -2.784901 -33.802131 -0.023480 8.276868 -2.936352 -0.231237 -0.129491 0.221375 0.000000 0.000000 0.000000 0.000000 0.000000 0.000000 0.000000 18.634070 -1.195257 0.863892 52.877727 10.105873 -19.089334 3.476608 11.211403 0.011079 -2.332852 7.525917 -0.161320 0.101687 -0.064370 0.000000 0.000000 0.000000 0.000000 0.000000 0.000000 0.000000 
2.416885 16.610709 1.121152 -81.442689 -87.538057 104.224095 -13.212936 1.815680 -3.050448 -1.808802 5.604703 -10.691436 0.268362 2.493166 43.836844 0.950071 -0.412063 15.462417 -0.616500 -0.000000 -62.617100 6.479423 -0.444116 0.841980 11.718280 10.469829 -46.003276 2.078187 -2.158918 34.116166 -1.508982 -4.616692 -8.707896 -0.339100 0.000000 -23.338600 8.372330 -2.871745 5.004836 0.935168 -3.033324 -1.917712 -6.841789 -3.155954 0.691757 13.210564 3.803389 4.845286 -3.879994 -0.360504 3.039489 0.000000 0.000000 0.000000 -7.771786 -9.225878 1.402815 -66.044795 -27.151248 12.703998 -2.818506 -31.511391 -0.023168 8.377714 -2.713964 -0.216708 -0.126100 0.211017 0.000000 0.000000 0.000000 0.000000 0.000000 0.000000 0.000000 18.791196 -1.079460 0.768945 53.476700 10.667769 -19.538575 3.436928 10.910374 0.010555 -2.545310 7.507686 -0.174725 0.099192 -0.062518 0.000000 0.000000 0.000000 0.000000 0.000000 0.000000 0.000000 
2.251583 16.633786 1.094603 -73.246112 -87.457494 95.967135 -13.314685 1.709198 -3.039465 -1.612035 5.477979 -12.034705 0.388991 2.625713 46.267758 1.146146 1.425145 15.572436 -0.003100 -0.000000 -58.171400 6.428009 -0.470852 0.693721 12.126840 10.084429 -45.034910 2.128287 -2.099804 33.977828 -1.591349 -4.823976 -9.467792 -0.249600 0.000000 -23.501500 8.361511 -2.866702 5.103850 0.924606 -3.031739 -1.885721 -6.812510 -3.155232 0.730499 13.660775 3.983866 5.062705 -3.834172 -0.359133 3.090156 0.000000 0.000000 0.000000 -7.581168 -9.440345 1.392068 -66.468392 -27.009838 12.451264 -2.855143 -29.263841 -0.022428 8.317461 -2.401511 -0.191273 -0.122234 0.200600 0.000000 0.000000 0.000000 0.000000 0.000000 0.000000 0.000000 18.933970 -1.002457 0.673368 54.153560 11.236021 -19.844079 3.398988 10.725796 0.010068 -2.702276 7.475882 -0.184130 0.096591 -0.060729 0.000000 0.000000 0.000000 0.000000 0.000000 0.000000 0.000000 
2.086361 16.660937 1.077400 -55.501819 -86.999531 78.301414 -13.591501 1.616839 -2.756792 -1.065653 4.574887 -13.886858 0.498160 2.810464 48.948249 1.360559 3.386190 15.303374 0.654399 0.000000 -53.956400 6.238838 -0.519623 0.432817 12.980871 9.031533 -44.084121 2.250351 -1.984283 33.504312 -1.664237 -5.018565 -10.026837 -0.183900 0.000000 -23.341500 8.700803 -2.960076 5.006736 0.978595 -3.166672 -1.893205 -6.772263 -3.295087 0.781858 14.021495 4.100971 5.248738 -3.782417 -0.356858 3.140161 0.000000 0.000000 0.000000 -7.582552 -9.685311 1.411433 -66.862996 -26.913722 12.288219 -2.893760 -27.066072 -0.021669 8.090207 -2.002720 -0.156836 -0.117381 0.192604 0.000000 0.000000 0.000000 0.000000 0.000000 0.000000 0.000000 18.939745 -1.057598 0.557356 54.866726 11.805034 -19.972629 3.372351 10.666966 0.009719 -2.802631 7.440487 -0.189632 0.094310 -0.058326 0.000000 0.000000 0.000000 0.000000 0.000000 0.000000 0.000000 
1.924273 16.690317 1.051033 -50.740914 -86.818853 73.540425 -13.615991 1.498981 -2.734236 -1.051768 4.393420 -15.352228 0.601319 2.933123 51.175217 1.576886 5.590750 14.881644 1.407000 -0.000000 -50.134700 6.243847 -0.536718 0.332493 13.259853 8.679698 -43.146797 2.292333 -1.911627 33.117729 -1.710289 -5.143046 -10.405082 -0.131800 -0.000000 -23.111100 8.643563 -2.913210 5.044300 0.961294 -3.124515 -1.867711 -6.742349 -3.252173 0.830206 14.383873 4.161249 5.409945 -3.744424 -0.355858 3.175811 0.000000 0.000000 0.000000 -7.441448 -9.842917 1.410143 -67.186776 -26.776360 12.195651 -2.938618 -25.041281 -0.020213 7.697969 -1.529599 -0.116284 -0.113032 0.182633 0.000000 0.000000 0.000000 0.000000 0.000000 0.000000 0.000000 19.045446 -1.037972 0.465608 55.666292 12.387779 -19.893490 3.339415 10.748870 0.009345 -2.841048 7.404890 -0.191032 0.091666 -0.057016 0.000000 0.000000 0.000000 0.000000 0.000000 0.000000 0.000000 
1.763861 16.723101 1.025600 -46.898472 -86.657570 69.725212 -13.620599 1.369624 -2.714438 -1.116398 4.214398 -16.855543 0.697288 3.046135 53.261405 1.796145 7.811987 14.238858 2.138000 0.000000 -46.718800 6.259413 -0.556718 0.256733 13.472662 8.382225 -42.236489 2.327223 -1.836628 32.657850 -1.743473 -5.248037 -10.633434 -0.098600 0.000000 -22.748400 8.563061 -2.847768 5.062208 0.939900 -3.063764 -1.846083 -6.714267 -3.190094 0.877170 14.683754 4.183901 5.543183 -3.713251 -0.355154 3.204162 0.000000 0.000000 0.000000 -7.333431 -9.965353 1.416551 -67.450071 -26.617321 12.170074 -2.988970 -23.202371 -0.018533 7.156421 -0.990150 -0.073222 -0.108692 0.173091 0.000000 0.000000 0.000000 0.000000 0.000000 0.000000 0.000000 19.133373 -1.025078 0.378581 56.510498 12.964525 -19.591630 3.308453 10.980054 0.009028 -2.817036 7.377058 -0.188631 0.088955 -0.056035 0.000000 0.000000 0.000000 0.000000 0.000000 0.000000 0.000000 
1.605201 16.759339 1.001407 -43.938752 -86.528224 66.816736 -13.609544 1.228818 -2.701564 -1.247672 4.052435 -18.379576 0.785288 3.148478 55.181605 2.010614 9.941386 13.417931 2.792300 -0.000000 -43.717000 6.280487 -0.580648 0.203461 13.625936 8.152767 -41.351489 2.355102 -1.760681 32.144216 -1.767746 -5.344228 -10.745812 -0.081100 -0.000000 -22.325500 8.463348 -2.764632 5.069104 0.914837 -2.984624 -1.828722 -6.689463 -3.109319 0.916313 14.914258 4.188926 5.653682 -3.689916 -0.354817 3.226835 0.000000 0.000000 0.000000 -7.253677 -10.062136 1.431451 -67.650597 -26.404292 12.188689 -3.042882 -21.599623 -0.016734 6.491598 -0.397708 -0.031853 -0.104421 0.164053 0.000000 0.000000 0.000000 0.000000 0.000000 0.000000 0.000000 19.203695 -1.000341 0.298035 57.389218 13.521237 -19.056146 3.278624 11.367872 0.008761 -2.732244 7.361936 -0.182526 0.086129 -0.055438 0.000000 0.000000 0.000000 0.000000 0.000000 0.000000 0.000000 
